:SAMPLES-PER-SECOND 30
:FULLY-SPECIFIED
:DEGREES
339
root  42.707 35.6485 29.6145 -137.162 84.5704 176.598
RightUpLeg  -88.1626 -16.6261 30.5194
RightLeg  42.7759 3.25986 2.92133
RightFoot  0.908193 1.54763 -14.2707
RightToes  0.00048216 0.542163 -0.142577
Spine  72.7228 -5.05472 6.96242
Spine1  3.86708 1.2777 -7.28289
HEad  -42.4897 -7.33029 6.04947
LeftShoulder1  1.16777 -22.1249 4.41819
LeftArm  -95.9088 -56.5158 40.2934
LeftForeArm  -14.5779 -9.67833 5.62855
LeftHand  -0.25398 0.0180481 5.50724
RightShoulder  0.700018 12.6304 -4.63358
RightArm  -84.4951 51.652 -24.3348
RightForeArm  -30.5124 4.47432 -3.25318
RightHand  0.270396 12.0094 1.24324
LeftUpLeg  -85.7314 21.2312 -27.7366
LeftLeg  44.7007 1.56856 2.07432
LeftFoot  -7.10966 -0.098979 3.83839
LeftToes  1.06248e-005 4.65855e-005 -8.185e-006
340
root  42.8643 35.5723 29.7843 -132.612 84.253 -179.184
RightUpLeg  -88.946 -16.6796 32.3923
RightLeg  43.6658 3.37028 3.12911
RightFoot  0.704479 1.53526 -14.4103
RightToes  0.00048216 0.542163 -0.142577
Spine  73.0293 -5.00384 6.55255
Spine1  4.6704 1.03827 -7.14164
HEad  -42.8257 -6.23385 5.39417
LeftShoulder1  1.44935 -21.0556 2.89147
LeftArm  -101.518 -55.6521 41.581
LeftForeArm  -11.4987 -12.6571 4.91354
LeftHand  -0.25398 0.0180481 5.50724
RightShoulder  0.800519 12.013 -3.69931
RightArm  -88.6584 52.0534 -23.042
RightForeArm  -29.6404 10.9023 -2.03652
RightHand  0.266432 11.688 1.26237
LeftUpLeg  -86.8987 21.829 -27.858
LeftLeg  45.6168 1.17139 1.70085
LeftFoot  -6.97386 -0.0912085 3.49242
LeftToes  1.06248e-005 4.65855e-005 -8.185e-006
341
root  42.9412 35.5462 29.9013 -130.554 83.8653 -177.11
RightUpLeg  -89.1591 -16.8975 33.6198
RightLeg  44.0012 3.36964 3.16653
RightFoot  0.714581 1.58113 -14.8248
RightToes  0.00048216 0.542163 -0.142577
Spine  73.2682 -5.01816 6.408
Spine1  5.41379 0.901226 -6.84291
HEad  -43.2649 -5.37426 5.02589
LeftShoulder1  1.57285 -19.9463 1.97327
LeftArm  -109.706 -55.5253 41.6857
LeftForeArm  -5.80833 -15.8748 3.1472
LeftHand  -0.25398 0.0180481 5.50724
RightShoulder  0.975582 11.5662 -2.20021
RightArm  -92.9313 51.9792 -22.925
RightForeArm  -26.2352 15.9792 0.736896
RightHand  0.0478468 11.6995 -0.227377
LeftUpLeg  -87.3503 22.2447 -27.894
LeftLeg  46.0138 0.865294 1.3823
LeftFoot  -6.87143 -0.0911408 3.39487
LeftToes  1.06248e-005 4.65855e-005 -8.185e-006
342
root  42.9282 35.5441 29.9615 -128.777 83.7104 -175.279
RightUpLeg  -89.0647 -16.8334 34.2039
RightLeg  43.8816 3.25137 3.03155
RightFoot  0.646947 1.61977 -15.2727
RightToes  0.00048216 0.542163 -0.142577
Spine  73.268 -4.99714 6.39574
Spine1  5.693 0.852708 -6.68536
HEad  -43.3981 -4.85214 4.83455
LeftShoulder1  1.60742 -19.1266 1.51919
LeftArm  -115.734 -55.9615 40.9938
LeftForeArm  -1.10684 -17.7701 1.48996
LeftHand  -0.25398 0.0180481 5.50724
RightShoulder  1.11795 11.3562 -1.00213
RightArm  -95.4122 52.044 -23.3081
RightForeArm  -23.5412 18.3078 2.71076
RightHand  0.213989 10.5049 1.03041
LeftUpLeg  -87.5382 22.4642 -27.8751
LeftLeg  46.0352 0.8009 1.31107
LeftFoot  -6.83989 -0.0973663 3.52469
LeftToes  1.06248e-005 4.65855e-005 -8.185e-006
343
root  42.8202 35.5621 29.9631 -126.176 83.7269 -172.439
RightUpLeg  -88.6511 -16.7021 34.5568
RightLeg  43.3627 3.17574 2.89854
RightFoot  0.597865 1.59757 -15.1313
RightToes  0.00048216 0.542163 -0.142577
Spine  73.036 -4.94707 6.5513
Spine1  5.78209 0.962014 -6.67512
HEad  -43.5551 -4.68484 4.58204
LeftShoulder1  1.71751 -19.0473 0.936888
LeftArm  -118.295 -56.4434 40.0479
LeftForeArm  1.84393 -18.7743 0.324336
LeftHand  -0.25398 0.0180481 5.50724
RightShoulder  1.17336 11.3396 -0.565575
RightArm  -96.0789 52.0005 -23.1039
RightForeArm  -23.1916 18.8745 3.15604
RightHand  0.435237 9.79286 2.7942
LeftUpLeg  -87.5067 22.589 -27.5494
LeftLeg  45.9444 0.978036 1.50335
LeftFoot  -6.67759 -0.109109 3.66631
LeftToes  1.06248e-005 4.65855e-005 -8.185e-006
